PathFileType	4	(X/Y/Z)	 s07c0103.trc
DataRate	CameraRate	NumFrames	NumMarkers	Units	OrigDataRate	OrigDataStartFrame	OrigNumFrames
200	200	4	47	mm	200	751	2000
Frame#	Time	racr			lacr			c7			jug			rlel			rdr			llel			ldr			s2			lic			ric			lasi			rasi			rpsi			lpsi			rgt			lgt			rth1			rth2			rth3			rth4			rlfc			rmfc			rsh1			rsh2			rsh3			rsh4			rcal			rtoe			rmt5			lth1			lth2			lth4			lth3			llfc			lmfc			lsh1			lsh2			lsh3			lsh4			llmal			lcal			ltoe			lmt5			SBIKE			LBIKE			RBIKE			
		X1	Y1	Z1	X2	Y2	Z2	X3	Y3	Z3	X4	Y4	Z4	X5	Y5	Z5	X6	Y6	Z6	X7	Y7	Z7	X8	Y8	Z8	X9	Y9	Z9	X10	Y10	Z10	X11	Y11	Z11	X12	Y12	Z12	X13	Y13	Z13	X14	Y14	Z14	X15	Y15	Z15	X16	Y16	Z16	X17	Y17	Z17	X18	Y18	Z18	X19	Y19	Z19	X20	Y20	Z20	X21	Y21	Z21	X22	Y22	Z22	X23	Y23	Z23	X24	Y24	Z24	X25	Y25	Z25	X26	Y26	Z26	X27	Y27	Z27	X28	Y28	Z28	X29	Y29	Z29	X30	Y30	Z30	X31	Y31	Z31	X32	Y32	Z32	X33	Y33	Z33	X34	Y34	Z34	X35	Y35	Z35	X36	Y36	Z36	X37	Y37	Z37	X38	Y38	Z38	X39	Y39	Z39	X40	Y40	Z40	X41	Y41	Z41	X42	Y42	Z42	X43	Y43	Z43	X44	Y44	Z44	X45	Y45	Z45	X46	Y46	Z46	X47	Y47	Z47	
751	3.7550	469.381107	1398.253469	-44.407356	515.065222	1378.920441	-294.960456	453.043530	1432.539060	-178.838674	431.782429	1286.933425	-181.926772	500.853117	1074.999858	88.272458	716.141442	916.327711	-46.910644	520.811106	1100.304805	-510.631576	725.092631	914.731822	-406.235135	-132.041007	1192.443367	-260.947596	49.523078	1238.871587	-384.033798	17.120440	1250.936967	-96.199037	71.776692	1167.427145	-356.013904	36.954386	1199.978375	-108.629868	-112.211233	1235.851101	-211.005838	-87.212684	1240.518879	-315.708159	-31.370740	1118.539413	-54.310715	-6.623059	1085.793479	-416.527211	110.129154	1018.188678	-51.649502	185.773761	975.166010	-64.463099	231.939232	903.471729	-67.763955	208.161021	1001.024998	-79.873985	320.072082	807.438577	-101.676773	305.031005	787.019029	-202.773098	285.034421	669.793986	-71.906766	284.718672	581.779122	-89.597157	245.233363	504.660288	-80.985114	296.157197	581.855797	-128.152231	148.468264	310.422531	-102.464340	433.277464	369.989796	-117.787406	368.192496	315.754874	-47.699282	80.015914	1003.510598	-417.688816	162.644281	972.254871	-415.875453	182.898022	1000.373433	-406.227507	219.278089	903.473235	-412.209305	336.018638	773.079231	-379.460689	322.301440	753.970939	-281.206541	227.714122	670.290209	-399.373205	183.509472	597.848804	-383.291615	105.288844	553.882184	-390.123418	189.547538	595.316669	-341.425760	4.847327	469.781684	-392.070841	-70.729766	486.044697	-357.403245	123.510344	271.371598	-355.302579	49.484630	309.897103	-417.338485	-258.355586	967.291045	-233.056568	-75.635684	83.031558	-437.299536	-82.412929	78.961371	-40.544558	
752	3.7600	470.519285	1399.478535	-44.807528	513.927835	1381.955419	-296.749544	452.475784	1435.496087	-179.974392	430.956433	1289.955587	-184.300801	501.766295	1076.065340	88.383060	716.536659	916.630513	-46.969509	521.200762	1101.488856	-509.891447	725.469535	914.844683	-405.889877	-131.679466	1192.320301	-259.157008	46.498241	1238.107363	-375.904013	18.509450	1249.476762	-94.441964	72.111310	1168.684748	-354.319493	37.836602	1198.601775	-106.976628	-111.672313	1235.073359	-208.939861	-87.050193	1240.788296	-313.803383	-30.758813	1116.584485	-52.974932	-5.269123	1087.263004	-415.582022	108.659292	1013.817489	-50.955229	183.211826	969.066553	-64.049034	227.767101	896.232789	-67.513291	206.119294	994.385037	-79.831062	313.041561	798.098547	-101.664011	297.020766	777.506106	-202.412228	279.635501	660.300057	-71.083934	280.606831	571.819404	-88.952261	242.060802	494.247951	-80.290289	292.379037	572.041374	-127.335337	148.419584	298.842371	-102.514725	432.574625	359.394490	-118.252803	367.839861	305.102804	-47.808634	82.110944	1006.460438	-418.291143	165.514393	977.172653	-416.428326	185.286162	1005.805097	-405.854561	224.060299	909.868274	-413.816771	342.944728	781.582833	-379.864908	329.768994	762.289508	-281.342714	234.752834	679.354383	-399.553680	189.738459	607.368383	-383.704496	111.114577	563.966260	-390.422134	195.966705	604.439495	-341.842923	10.260881	480.657584	-392.464761	-64.704798	499.117286	-357.361735	123.539707	279.447419	-355.487353	50.435888	319.790844	-417.351146	-258.474647	967.273144	-232.745606	-75.641310	83.081574	-437.276087	-82.397743	78.875150	-40.570642	
753	3.7650	471.709296	1400.844181	-45.473455	512.638850	1384.980056	-298.535346	451.849866	1438.537102	-181.172485	430.016021	1293.078595	-186.668901	502.922866	1077.231544	88.524745	716.980873	916.836407	-47.057997	521.801132	1102.793420	-508.940513	725.729912	914.943737	-405.608321	-131.107874	1192.482067	-257.335238	49.305603	1242.445700	-380.251454	19.863064	1248.320711	-92.770304	72.492167	1170.454872	-352.662883	38.834147	1197.597145	-105.122080	-111.376275	1235.070295	-206.584963	-86.968778	1241.795691	-311.955848	-30.164134	1115.045621	-51.815476	-3.974708	1089.312178	-414.741815	107.270884	1010.275558	-50.199043	180.572282	963.811962	-63.719048	223.404150	889.987432	-67.357487	203.910833	988.427472	-79.978709	306.240535	789.172437	-101.660568	287.715878	769.024781	-204.294280	274.558053	650.739982	-70.974820	276.641537	562.509642	-88.775897	239.144001	484.351908	-80.333364	288.647640	562.896884	-127.130079	147.357000	288.434749	-102.420330	431.869868	348.627369	-118.604634	367.150840	294.717939	-47.849720	84.194461	1009.918898	-418.416787	168.321590	982.426839	-416.404324	187.360289	1011.446806	-405.294374	227.972099	916.125505	-413.217220	349.597737	790.572066	-380.461472	336.890138	771.154435	-281.401344	241.266578	688.402891	-399.119159	196.107103	616.705928	-383.825142	116.909068	573.848956	-390.367890	202.249686	613.737610	-342.085974	15.961641	491.266835	-392.872695	-58.330886	511.916326	-357.995433	124.243533	287.654412	-355.703766	52.059488	329.520564	-417.262768	-258.496852	967.412097	-232.866461	-75.656590	83.111985	-437.267326	-82.271259	79.296013	-39.914826	
754	3.7700	472.950316	1402.272487	-46.209902	511.248116	1388.116026	-300.398596	451.296846	1441.571954	-182.399376	429.095360	1296.209420	-188.972119	504.387091	1078.690308	88.755181	717.317063	917.034650	-47.212478	522.423147	1104.173840	-508.093954	725.913925	915.047131	-405.279512	-130.925935	1193.301443	-255.371575	48.906695	1244.717634	-378.046182	20.528230	1247.901829	-90.542823	72.825912	1172.620638	-350.868581	39.964873	1196.981474	-103.424495	-110.916107	1235.487448	-204.077856	-86.961791	1242.736485	-309.895478	-29.682627	1113.966482	-50.680886	-2.765950	1091.900275	-414.005946	105.764530	1007.175551	-49.679301	177.859047	959.046967	-63.550527	218.978503	884.193369	-67.347526	201.648863	983.130323	-80.026299	299.636379	780.686541	-101.809870	281.516610	760.398270	-203.681753	269.285728	641.839227	-70.923151	272.602182	553.702999	-89.114882	236.326531	475.012202	-80.621033	284.354131	554.266703	-127.455918	145.715898	279.172636	-102.292863	430.513942	337.296066	-119.041431	365.948292	284.125556	-47.903126	86.368770	1013.867126	-417.991286	171.030011	988.168541	-415.950648	189.457093	1017.539070	-404.910900	232.072622	923.206500	-412.773510	356.175422	799.693281	-380.622781	343.700690	780.232053	-281.364455	247.952587	697.573283	-399.139287	202.316040	626.272407	-383.916914	122.951819	583.865070	-390.680411	208.407171	623.299685	-342.223180	21.718872	501.654000	-393.284643	-52.146807	523.966006	-357.822946	125.618299	296.213037	-355.914603	54.338466	339.478852	-417.256212	-258.477072	967.484434	-232.768254	-75.667991	83.137727	-437.277323	-82.270602	79.311355	-39.920096	
